<svg xmlns="http://www.w3.org/2000/svg" viewBox="0 0 474.19 166.2">
<path d="M14.8 32 .4 29.4v-14h64.8v14L48.8 32v47.8h54.8V32.2l-15-2.8v-14h64v14L137.8 32v116.8l14.8 2V164h-64v-13.2l15-2.2V96.8H48.8v52l16.4 2V164H0v-13.2l14.8-2Zm166 41.8L167.4 70V55l40-4.8h.4l6.2 4.2V149l12 1.8V164h-57.6v-13.2l12.4-1.8Zm-.4-42.8a15.63 15.63 0 0 1-4.8-11.8 18.85 18.85 0 0 1 5.3-13.8Q186.2 0 195.2 0T209 4.6a15.63 15.63 0 0 1 4.8 11.8q0 8.59-5.4 13.9t-15.2 5.3h-.2q-7.8 0-12.6-4.6ZM251 73.8l-11.8-3.6V54.6l36.4-4.4h.6l5.2 4.2v7.4l-.2 4.6A59.79 59.79 0 0 1 299 55.2a57 57 0 0 1 22.6-4.6q12 0 18.9 4.3t10 13.7q3.09 9.41 3.1 25.6V149l11.2 1.6V164h-54.4v-13.2l9.8-1.8V94.4a66.31 66.31 0 0 0-1.3-14.9q-1.31-5.3-4.5-7.7c-2.14-1.6-5.2-2.4-9.2-2.4q-9.21 0-20.8 8.6v71l11 1.8V164H240v-13.2l11-1.8Zm138 76.9q-13.22-15.49-13.21-42.3 0-18.2 6.8-31.4a47.3 47.3 0 0 1 19.1-20.1Q414 50 430.59 50q21 0 32.1 10.6t11.5 30q0 12.8-1.8 20.6h-62.6q1 17 8.3 25.9t20.5 8.9a52.39 52.39 0 0 0 15.5-2.5 54.15 54.15 0 0 0 13.1-5.7l5.6 12.2q-5.19 5.81-17.7 11a65.74 65.74 0 0 1-25.5 5.2q-27.39 0-40.59-15.5ZM442.39 98l.2-8.4q0-12.6-3.4-19.2t-11.6-6.6a14.55 14.55 0 0 0-13 7.3q-4.59 7.31-5 26.9Z" fill="#fff"/>
</svg>